# xmcd
#
# Track frame offsets:
#	150
#	6292
#	19480
#	36237
#	50592
#	66307
#	82595
#	98785
#	113150
#	129990
#	143252
#	153657
#	171325
#	184100
#
# Disc length: 2580 seconds
#
# Revision: 0
# Processed by: cddbd v1.5.2PL0 Copyright (c) Steve Scherf et al.
# Submitted via: EasyCDDAExtractor 11.0.3.1
#
DISCID=b40a120e
DTITLE=Various Artist - Sistema Bruto - A porteira tá aberta
DYEAR=1900
DGENRE=
TTITLE0=Jackson Antunes and Chico Lobo - Colcha de Retalhos
TTITLE1=Chico Rey and Paraná - Tá com raiva de mim
TTITLE2=Juliano Cezar - Esta noite eu queria que o mundo acabasse
TTITLE3=Jad e Jefferson - Boate azul
TTITLE4=Trio Parada Dura - Paixão dividida
TTITLE5=Roberto e Meirinho - Ausência
TTITLE6=Duani and Diney - Só pra judiar de mim
TTITLE7=Guilherme and Santiago - Crises de amor
TTITLE8=Lucas and Matheus - Bebo e choro
TTITLE9=Peão Carreiro e Praense - Coração pede socorro
TTITLE10=Liu and Léu - Dona Saudade
TTITLE11=João Mulato and Douradinho - Teu nome tem sete letras
TTITLE12=Delley and Dorivan - Chorei por ela
TTITLE13=Jackson Antunes and Chico Lobo - Cabocla Tereza
EXTD=
EXTT0=
EXTT1=
EXTT2=
EXTT3=
EXTT4=
EXTT5=
EXTT6=
EXTT7=
EXTT8=
EXTT9=
EXTT10=
EXTT11=
EXTT12=
EXTT13=
PLAYORDER=
